PathFileType	4	(X/Y/Z)	Run_500 02
DataRate	CameraRate	NumFrames	NumMarkers	Units	OrigDataRate	OrigDataStartFrame	OrigNumFrames
100	100	4	42	mm	100	154	128
Frame#	Time	LASI			RASI			LPSI			RPSI			RTH1			RTH2			RTH3			LTH1			LTH2			LTH3			RTB1			RTB2			RTB3			LTB1			LTB2			LTB3			RCAL			RTOE			RMT5			LCAL			LTOE			LMT5			LACR			RACR			CLAV			C7			RUA1			RUA2			RUA3			RLEL			RMEL			LUA1			LUA2			LUA3			LLEL			LMEL			RFAsuperior			RFAradius			RFAulna			LFAsuperior			LFAradius			LFAulna			
		X1	Y1	Z1	X2	Y2	Z2	X3	Y3	Z3	X4	Y4	Z4	X5	Y5	Z5	X6	Y6	Z6	X7	Y7	Z7	X8	Y8	Z8	X9	Y9	Z9	X10	Y10	Z10	X11	Y11	Z11	X12	Y12	Z12	X13	Y13	Z13	X14	Y14	Z14	X15	Y15	Z15	X16	Y16	Z16	X17	Y17	Z17	X18	Y18	Z18	X19	Y19	Z19	X20	Y20	Z20	X21	Y21	Z21	X22	Y22	Z22	X23	Y23	Z23	X24	Y24	Z24	X25	Y25	Z25	X26	Y26	Z26	X27	Y27	Z27	X28	Y28	Z28	X29	Y29	Z29	X30	Y30	Z30	X31	Y31	Z31	X32	Y32	Z32	X33	Y33	Z33	X34	Y34	Z34	X35	Y35	Z35	X36	Y36	Z36	X37	Y37	Z37	X38	Y38	Z38	X39	Y39	Z39	X40	Y40	Z40	X41	Y41	Z41	X42	Y42	Z42	

152	3.56	821.197712	956.400922	-429.166457	812.093495	962.679452	-188.009213	656.121939	1007.618192	-366.610939	656.196476	1014.353563	-268.272596	683.741755	732.912726	-131.695414	714.407783	633.335594	-136.807161	625.1745100000001	567.6213729999999	-151.859461	833.990405	775.21512	-478.759194	930.918066	708.347429	-456.669633	928.3681309999999	588.225153	-430.111264	473.33483	454.755743	-218.522535	397.363955	503.364379	-179.963597	288.935272	494.119623	-247.128073	1028.732325	421.610076	-359.048762	988.728708	327.115545	-411.617134	1045.356556	231.03325	-336.423113	233.262901	601.1600110000001	-264.96616	103.704003	427.989099	-313.812944	74.736924	479.194069	-220.421687	976.453775	94.37402	-310.001665	1189.999022	131.354169	-311.735588	1155.446216	73.788954	-400.764556	835.656864	1430.099873	-486.128163	850.158603	1433.64531	-204.590557	916.186829	1347.773345	-330.310522	809.26849	1475.217199	-337.655005	819.667776	1363.971257	-81.856088	750.36004	1309.436977	-65.50470300000001	800.621892	1272.954438	2.408421	785.0732389999999	1215.664648	52.810054	742.854485	1169.963562	4.6988	726.847177	1380.908373	-568.0011019999999	668.862618	1340.681359	-515.631083	663.507377	1313.153682	-601.299806	595.159542	1259.536536	-627.871552	577.514983	1231.950836	-560.801721	894.698427	1201.415793	9.807067999999999	975.3718280000001	1179.076781	-98.087886	980.168165	1122.093715	-58.742383	696.834573	1203.262675	-636.214034	789.728569	1101.638469	-585.518994	747.947893	1081.411559	-641.44491	
153	3.57	820.729738	951.2971250000001	-431.456351	815.577333	956.1360550000001	-190.126745	657.828181	1001.713269	-366.71912	657.727808	1006.676845	-266.523395	693.80019	723.872054	-130.776981	728.425046	626.097052	-133.840549	642.678818	556.635269	-148.661105	832.738294	768.666932	-479.562131	927.515452	699.2998229999999	-456.628295	919.968212	578.552935	-428.973248	494.805488	454.947262	-215.714447	422.864082	511.04228	-177.574989	314.813789	511.563005	-245.778071	1015.604836	407.407957	-355.593516	971.639653	315.78583	-406.962078	1021.90633	217.72586	-329.684384	268.746444	623.324886	-268.54546	124.067931	459.758475	-305.572916	102.270301	517.595083	-213.954883	942.086234	95.57552099999999	-301.705028	1157.703269	100.600833	-305.20849	1115.519281	56.322504	-398.258272	835.079135	1424.315475	-486.593002	847.446785	1428.176389	-204.275451	915.509	1342.489116	-329.379614	805.816713	1468.250676	-338.782015	810.881063	1359.152335	-82.172603	740.2331390000001	1306.795461	-67.894988	788.172901	1267.581911	0.618313	767.468739	1213.694058	51.835446	724.986801	1169.439156	2.798225	729.626853	1370.123068	-571.496663	670.632356	1327.778296	-523.987618	670.599915	1298.920408	-609.22782	605.87246	1243.797807	-638.045794	586.377019	1215.218021	-571.922115	877.579701	1190.776039	14.278751	961.347966	1158.137261	-89.111824	960.887798	1103.11318	-46.054733	709.026716	1190.506246	-644.006947	803.83764	1092.216247	-590.252521	764.490596	1068.615938	-646.494688	
154	3.58	818.097967	946.556662	-434.108179	818.440248	948.959057	-193.036823	656.636727	996.470943	-366.672589	657.440198	998.6831560000001	-265.122823	704.764847	715.110312	-130.159343	743.143314	619.0700849999999	-131.432168	662.016407	545.809632	-145.799825	829.518822	762.5615780000001	-482.123239	922.930156	690.310018	-458.564465	912.7019	572.280971	-429.501208	519.8085600000001	454.099235	-213.178224	451.568933	516.017525	-175.292322	344.650237	525.126407	-244.603872	1005.246105	400.281052	-351.939143	957.710997	310.935438	-402.311774	997.331042	211.743625	-321.798121	307.105801	639.887658	-271.742839	149.669019	486.408479	-296.667363	136.747861	548.787911	-206.335463	904.086955	100.0731	-293.140492	1120.393426	79.251306	-297.976211	1072.727663	49.322993	-394.741589	834.684227	1418.669683	-487.200189	844.660019	1423.141563	-203.331433	915.110156	1336.926907	-328.351208	802.5437920000001	1460.97266	-339.649516	801.745688	1353.844267	-82.248137	729.4780960000001	1303.641768	-70.60660300000001	775.1483950000001	1262.179176	-1.467622	749.203978	1211.683075	49.977777	706.168369	1169.073477	0.165994	732.923816	1358.43645	-575.008866	673.497469	1313.668076	-532.549603	679.063049	1283.638039	-617.027162	618.143254	1227.414642	-648.1943230000001	597.20467	1197.597621	-583.2740700000001	858.956657	1179.600622	19.031261	944.9376569999999	1136.065801	-79.09141700000001	938.948364	1083.87877	-32.380023	722.745289	1176.753615	-651.269282	818.6105690000001	1081.419911	-594.7145860000001	782.028846	1055.352978	-651.927622	
155	3.59	813.2281379999999	942.87431	-437.020661	819.842352	941.8121619999999	-196.972899	652.610178	991.551393	-365.772461	655.1843229999999	990.852839	-263.938487	717.146689	707.411037	-129.930294	759.562915	612.987108	-130.371625	684.560609	536.044751	-143.295104	823.671256	757.8834440000001	-484.820057	917.347795	685.55318	-461.980825	908.3759229999999	570.735472	-431.796302	548.6834229999999	452.420036	-211.687973	483.297921	517.809828	-173.477964	377.862885	534.504947	-243.495458	995.262413	399.646546	-347.970053	943.5458159999999	311.741173	-399.555073	969.285976	211.380251	-315.760625	347.542555	650.7331809999999	-273.594283	179.88793	507.185664	-288.076365	176.138407	571.547794	-198.143266	861.444071	104.558254	-287.145716	1077.70509	70.026093	-293.057766	1027.214714	49.715114	-391.614911	834.259978	1413.684283	-488.058946	841.722296	1419.084451	-201.624111	914.857621	1331.807457	-327.215458	800.774273	1455.002088	-340.164507	792.997584	1348.530923	-82.083196	718.662317	1300.624409	-73.727232	761.491832	1257.523509	-3.516077	730.4933150000001	1209.953554	47.11816	686.98835	1169.371856	-3.693663	736.916191	1346.290559	-578.853821	677.639877	1298.821284	-541.0781480000001	689.061732	1268.017718	-624.422092	632.293049	1210.717262	-658.062293	610.1127770000001	1179.60879	-594.578684	838.750882	1168.434907	23.565392	926.069552	1113.860422	-68.408451	914.223612	1065.310097	-18.392368	738.529883	1162.401516	-657.153037	834.031022	1069.392813	-598.5707630000001	800.917864	1041.998644	-657.342455	
